<svg xmlns="http://www.w3.org/2000/svg" id="Capa_2" data-name="Capa 2" viewBox="0 0 48.16 48.17"><defs><style>      .cls-1 {        fill: #a3af4b;      }    </style></defs><g id="Capa_1-2" data-name="Capa 1"><g id="jBFD8k"><g><path class="cls-1" d="M33.41,48.17h-1.97c-2.45-.56-4.1-1.98-4.81-4.43-.08-.27-.25-.33-.49-.33-1.36,0-2.72,0-4.09,0-.3,0-.46,.12-.53,.4-.16,.61-.42,1.18-.77,1.7-.97,1.47-2.37,2.28-4.06,2.65h-1.88c-.11-.03-.21-.05-.32-.08-2.85-.62-4.92-3.05-4.83-5.89,.03-.93-.3-1.28-1.02-1.68-3.36-1.89-6.04-4.49-7.88-7.91-.32-.6-.56-1.23-.69-1.89-.23-1.17,.15-1.7,1.34-1.85,2.36-.29,3.49-1.94,3.43-3.85-.05-1.58-.05-3.16,.06-4.74,.2-2.9,.93-5.65,2.23-8.24C11.31,3.73,20.61-1.58,30.54,.42c8.11,1.64,13.63,6.46,16.51,14.24,.62,1.68,.91,3.44,1.11,5.22v3.66c-.06,.45-.11,.9-.18,1.35-1.02,6.2-4.11,11.11-9.28,14.69-.38,.27-.47,.5-.36,.96,.6,2.42,0,4.52-1.85,6.22-.87,.8-1.95,1.16-3.08,1.4Zm-8.66-7.27c1.51,.02,3.28,0,5.03-.3,10.46-1.78,17.43-11.64,15.65-22.16-1.67-9.87-10.95-17.21-21.63-15.69-4.78,.68-8.75,2.92-11.89,6.59-2.75,3.21-4.24,6.94-4.52,11.16-.11,1.66-.04,3.32-.07,4.98-.03,2.33-1.52,4.51-3.68,5.39-.78,.32-.81,.33-.35,1.08,1.68,2.8,3.99,4.96,6.81,6.59,.4,.23,.59,.18,.87-.18,1.29-1.61,3.01-2.44,5.06-2.29,2.8,.21,4.66,1.73,5.53,4.41,.1,.32,.26,.42,.57,.41,.78-.01,1.57,0,2.61,0Z"></path><path class="cls-1" d="M28.6,31.34c-3.45-.17-6.4-1.88-8.26-5.35-.19-.34-.28-.7-.16-1.08,.15-.52,.52-.83,1.04-.89,.55-.06,.98,.19,1.25,.66,.31,.53,.6,1.06,.99,1.54,3.24,3.92,9.42,3.32,11.83-1.16,.06-.11,.11-.22,.17-.33,.37-.67,1.06-.91,1.71-.58,.61,.31,.85,1.01,.54,1.69-.68,1.46-1.68,2.67-2.98,3.62-1.69,1.24-3.6,1.85-6.14,1.88Z"></path><path class="cls-1" d="M33.73,16.84c.03-1.36,1.17-2.45,2.49-2.4,1.35,.05,2.42,1.19,2.38,2.53-.04,1.32-1.18,2.41-2.48,2.38-1.36-.03-2.42-1.15-2.39-2.5Z"></path><path class="cls-1" d="M24.14,16.9c0,1.36-1.11,2.46-2.45,2.44-1.34-.02-2.42-1.14-2.41-2.49,.01-1.32,1.12-2.42,2.44-2.42,1.34,0,2.43,1.11,2.42,2.47Z"></path></g></g></g></svg>