<svg xmlns="http://www.w3.org/2000/svg" id="Capa_2" data-name="Capa 2" viewBox="0 0 31.49 45.11"><defs><style>      .cls-1 {        fill: #a3af4b;      }    </style></defs><g id="Capa_1-2" data-name="Capa 1"><g id="T1UAhd"><path class="cls-1" d="M31.49,16.72c-.01,2.79-1,6.14-2.99,9.2-1.58,2.42-3.44,4.63-5.21,6.9-1.58,2.01-3.1,4.06-4.28,6.34-.69,1.33-1.15,2.76-1.59,4.19-.11,.36-.25,.71-.44,1.04-.28,.49-.7,.74-1.27,.73-.56-.01-.98-.26-1.23-.78-.45-.93-.7-1.93-1.04-2.9-.85-2.43-2.23-4.55-3.72-6.61-1.62-2.26-3.44-4.36-5.12-6.58C2.47,25.42,.75,22.38,.22,18.79-.61,13.14,.86,8.24,5,4.26,7.73,1.63,11.06,.21,14.86,.02c4.74-.24,8.84,1.34,12.16,4.71,3.02,3.06,4.49,6.82,4.48,11.98Zm-21.7-.96c-.11,3.24,2.71,5.95,5.9,5.95,3.18,0,6.01-2.43,6.03-5.95,.02-3.42-2.68-5.95-5.96-5.99-3.39-.03-5.96,2.61-5.97,5.99Z"></path></g></g></svg>